<svg width="1600" height="815" viewBox="0 0 1600 815" fill="none" xmlns="http://www.w3.org/2000/svg">
<path d="M0 544H1600V604L0 815V544Z" fill="#EF2A82"/>
<path d="M0 0H1600V587L0 798V0Z" fill="#172755"/>
<mask id="mask0_1711_1520" style="mask-type:alpha" maskUnits="userSpaceOnUse" x="0" y="-1" width="1600" height="799">
<path d="M0.499939 0.499756H1599.5V586.561L0.499939 797.429V0.499756Z" fill="#172755" stroke="black"/>
</mask>
<g mask="url(#mask0_1711_1520)">
<g opacity="0.07">
<path d="M1832.47 274.985C1702.93 85.9868 1485.44 -38 1239 -38C841.907 -38 520 283.907 520 681C520 738.771 526.814 794.95 539.681 848.779L905.824 482.636C940.922 447.538 997.828 447.538 1032.93 482.636L1328.87 778.585L1832.47 274.985Z" fill="#8794BA"/>
<path d="M1917.93 443.734L1392.43 969.239C1357.33 1004.34 1300.42 1004.34 1265.32 969.239L969.375 673.29L611.104 1031.56C734.1 1251.39 969.195 1400 1239 1400C1636.09 1400 1958 1078.09 1958 681C1958 597.861 1943.89 518.017 1917.93 443.734Z" fill="#8794BA"/>
</g>
</g>
<g opacity="0.07">
<path d="M502.387 -117.35C442.929 -204.094 343.11 -261.001 230 -261.001C47.746 -261.001 -100 -113.255 -100 68.9993C-100 95.5144 -96.8727 121.299 -90.9671 146.005L77.0818 -22.0439C93.191 -38.1531 119.309 -38.1531 135.418 -22.0439L271.25 113.788L502.387 -117.35Z" fill="#8794BA"/>
<path d="M541.609 -39.8988L300.418 201.292C284.309 217.402 258.191 217.402 242.082 201.292L106.25 65.4606L-58.186 229.897C-1.73432 330.792 106.168 398.999 230 398.999C412.254 398.999 560 251.253 560 68.9993C560 30.8407 553.523 -5.80507 541.609 -39.8988Z" fill="#8794BA"/>
</g>
<rect x="21.5" y="11.5" width="1550" height="802" stroke="#A40303" stroke-width="3"/>
<rect x="140.5" y="30.5" width="1317" height="95" stroke="#0EE3B0"/>
<rect x="160.5" y="40.5" width="713" height="67" stroke="#FFCD1E"/>
<rect x="1090.5" y="40.5" width="355" height="67" stroke="#F4DC00"/>
<rect x="450.5" y="50.5" width="412" height="43" stroke="#FF00E5"/>
<rect x="130.5" y="180.5" width="684" height="438" stroke="#08FD4D"/>
<rect x="70.5" y="140.5" width="1608" height="602" stroke="#207ACD"/>
<path d="M53.2102 33.4545V48H51.5341V33.4545H53.2102ZM60.712 48.2273C59.7272 48.2273 58.863 47.9929 58.1197 47.5241C57.381 47.0554 56.8034 46.3996 56.3867 45.5568C55.9748 44.714 55.7688 43.7292 55.7688 42.6023C55.7688 41.4659 55.9748 40.474 56.3867 39.6264C56.8034 38.7789 57.381 38.1207 58.1197 37.652C58.863 37.1832 59.7272 36.9489 60.712 36.9489C61.6969 36.9489 62.5586 37.1832 63.2972 37.652C64.0406 38.1207 64.6183 38.7789 65.0302 39.6264C65.4469 40.474 65.6552 41.4659 65.6552 42.6023C65.6552 43.7292 65.4469 44.714 65.0302 45.5568C64.6183 46.3996 64.0406 47.0554 63.2972 47.5241C62.5586 47.9929 61.6969 48.2273 60.712 48.2273ZM60.712 46.7216C61.4601 46.7216 62.0756 46.5298 62.5586 46.1463C63.0415 45.7628 63.399 45.2585 63.631 44.6335C63.863 44.0085 63.979 43.3314 63.979 42.6023C63.979 41.8731 63.863 41.1937 63.631 40.5639C63.399 39.9342 63.0415 39.4252 62.5586 39.0369C62.0756 38.6487 61.4601 38.4545 60.712 38.4545C59.9639 38.4545 59.3484 38.6487 58.8654 39.0369C58.3825 39.4252 58.025 39.9342 57.793 40.5639C57.561 41.1937 57.445 41.8731 57.445 42.6023C57.445 43.3314 57.561 44.0085 57.793 44.6335C58.025 45.2585 58.3825 45.7628 58.8654 46.1463C59.3484 46.5298 59.9639 46.7216 60.712 46.7216ZM72.6172 52.3182C71.8075 52.3182 71.1115 52.214 70.5291 52.0057C69.9467 51.8021 69.4614 51.5322 69.0732 51.196C68.6896 50.8646 68.3842 50.5095 68.157 50.1307L69.4922 49.1932C69.6437 49.392 69.8355 49.6193 70.0675 49.875C70.2995 50.1354 70.6167 50.3603 71.0192 50.5497C71.4264 50.7438 71.959 50.8409 72.6172 50.8409C73.4979 50.8409 74.2247 50.6278 74.7976 50.2017C75.3705 49.7756 75.657 49.108 75.657 48.1989V45.983H75.5149C75.3918 46.1818 75.2166 46.428 74.9893 46.7216C74.7668 47.0104 74.4448 47.2685 74.0234 47.4957C73.6068 47.7183 73.0433 47.8295 72.3331 47.8295C71.4524 47.8295 70.6617 47.6212 69.9609 47.2045C69.2649 46.7879 68.7133 46.1818 68.3061 45.3864C67.9036 44.5909 67.7024 43.625 67.7024 42.4886C67.7024 41.3712 67.8989 40.3982 68.2919 39.5696C68.6849 38.7363 69.2318 38.0923 69.9325 37.6378C70.6333 37.1785 71.4429 36.9489 72.3615 36.9489C73.0717 36.9489 73.6352 37.0672 74.0518 37.304C74.4732 37.536 74.7952 37.8011 75.0178 38.0994C75.245 38.393 75.4202 38.6345 75.5433 38.8239H75.7138V37.0909H77.3331V48.3125C77.3331 49.25 77.12 50.0123 76.6939 50.5994C76.2725 51.1913 75.7043 51.6245 74.9893 51.8991C74.2791 52.1785 73.4884 52.3182 72.6172 52.3182ZM72.5604 46.3239C73.2327 46.3239 73.8009 46.17 74.2649 45.8622C74.7289 45.5545 75.0817 45.1117 75.3232 44.5341C75.5646 43.9564 75.6854 43.2652 75.6854 42.4602C75.6854 41.6742 75.567 40.9806 75.3303 40.3793C75.0935 39.7779 74.7431 39.3068 74.2791 38.9659C73.8151 38.625 73.2422 38.4545 72.5604 38.4545C71.8501 38.4545 71.2583 38.6345 70.7848 38.9943C70.3161 39.3542 69.9633 39.8371 69.7266 40.4432C69.4946 41.0492 69.3786 41.7216 69.3786 42.4602C69.3786 43.2178 69.4969 43.8878 69.7337 44.4702C69.9751 45.0478 70.3303 45.5024 70.799 45.8338C71.2725 46.1605 71.8596 46.3239 72.5604 46.3239ZM84.8331 48.2273C83.8482 48.2273 82.9841 47.9929 82.2408 47.5241C81.5021 47.0554 80.9245 46.3996 80.5078 45.5568C80.0959 44.714 79.8899 43.7292 79.8899 42.6023C79.8899 41.4659 80.0959 40.474 80.5078 39.6264C80.9245 38.7789 81.5021 38.1207 82.2408 37.652C82.9841 37.1832 83.8482 36.9489 84.8331 36.9489C85.8179 36.9489 86.6797 37.1832 87.4183 37.652C88.1617 38.1207 88.7393 38.7789 89.1513 39.6264C89.5679 40.474 89.7763 41.4659 89.7763 42.6023C89.7763 43.7292 89.5679 44.714 89.1513 45.5568C88.7393 46.3996 88.1617 47.0554 87.4183 47.5241C86.6797 47.9929 85.8179 48.2273 84.8331 48.2273ZM84.8331 46.7216C85.5812 46.7216 86.1967 46.5298 86.6797 46.1463C87.1626 45.7628 87.5201 45.2585 87.7521 44.6335C87.9841 44.0085 88.1001 43.3314 88.1001 42.6023C88.1001 41.8731 87.9841 41.1937 87.7521 40.5639C87.5201 39.9342 87.1626 39.4252 86.6797 39.0369C86.1967 38.6487 85.5812 38.4545 84.8331 38.4545C84.085 38.4545 83.4695 38.6487 82.9865 39.0369C82.5036 39.4252 82.1461 39.9342 81.9141 40.5639C81.6821 41.1937 81.5661 41.8731 81.5661 42.6023C81.5661 43.3314 81.6821 44.0085 81.9141 44.6335C82.1461 45.2585 82.5036 45.7628 82.9865 46.1463C83.4695 46.5298 84.085 46.7216 84.8331 46.7216ZM94.011 41.4375V48H92.3349V37.0909H93.9542V38.7955H94.0962C94.3519 38.2415 94.7402 37.7964 95.261 37.4602C95.7818 37.1193 96.4542 36.9489 97.2781 36.9489C98.0167 36.9489 98.663 37.1004 99.217 37.4034C99.771 37.7017 100.202 38.1562 100.51 38.767C100.817 39.3731 100.971 40.1402 100.971 41.0682V48H99.2951V41.1818C99.2951 40.3248 99.0726 39.6572 98.6275 39.179C98.1824 38.696 97.5716 38.4545 96.7951 38.4545C96.2601 38.4545 95.7818 38.5705 95.3604 38.8026C94.9438 39.0346 94.6147 39.3731 94.3732 39.8182C94.1317 40.2633 94.011 40.803 94.011 41.4375ZM107.244 48.2557C106.553 48.2557 105.926 48.1255 105.362 47.8651C104.799 47.5999 104.351 47.2188 104.02 46.7216C103.688 46.2197 103.523 45.6136 103.523 44.9034C103.523 44.2784 103.646 43.7718 103.892 43.3835C104.138 42.9905 104.467 42.6828 104.879 42.4602C105.291 42.2377 105.746 42.072 106.243 41.9631C106.745 41.8494 107.249 41.7595 107.756 41.6932C108.419 41.608 108.956 41.544 109.368 41.5014C109.785 41.4541 110.088 41.3759 110.277 41.267C110.471 41.1581 110.568 40.9687 110.568 40.6989V40.642C110.568 39.9413 110.376 39.3968 109.993 39.0085C109.614 38.6203 109.039 38.4261 108.267 38.4261C107.467 38.4261 106.839 38.6013 106.385 38.9517C105.93 39.3021 105.611 39.6761 105.426 40.0739L103.835 39.5057C104.119 38.8428 104.498 38.3267 104.972 37.9574C105.45 37.5833 105.971 37.3229 106.534 37.1761C107.102 37.0246 107.661 36.9489 108.21 36.9489C108.561 36.9489 108.963 36.9915 109.418 37.0767C109.877 37.1572 110.32 37.3253 110.746 37.581C111.177 37.8366 111.534 38.2225 111.818 38.7386C112.102 39.2547 112.244 39.946 112.244 40.8125V48H110.568V46.5227H110.483C110.369 46.7595 110.18 47.0128 109.915 47.2827C109.65 47.5526 109.297 47.7822 108.857 47.9716C108.416 48.161 107.879 48.2557 107.244 48.2557ZM107.5 46.75C108.163 46.75 108.722 46.6198 109.176 46.3594C109.635 46.099 109.981 45.7628 110.213 45.3509C110.45 44.9389 110.568 44.5057 110.568 44.0511V42.517C110.497 42.6023 110.341 42.6804 110.099 42.7514C109.863 42.8177 109.588 42.8769 109.276 42.929C108.968 42.9763 108.667 43.0189 108.374 43.0568C108.085 43.09 107.85 43.1184 107.67 43.142C107.235 43.1989 106.828 43.2912 106.449 43.419C106.075 43.5421 105.772 43.7292 105.54 43.9801C105.313 44.2263 105.199 44.5625 105.199 44.9886C105.199 45.571 105.414 46.0114 105.845 46.3097C106.281 46.6032 106.832 46.75 107.5 46.75ZM123.833 37.0909L119.799 48H118.095L114.061 37.0909H115.879L118.89 45.7841H119.004L122.015 37.0909H123.833Z" fill="white"/>
<path d="M61.2102 81.4545V96H59.5341V81.4545H61.2102ZM68.712 96.2273C67.7272 96.2273 66.863 95.9929 66.1197 95.5241C65.381 95.0554 64.8034 94.3996 64.3867 93.5568C63.9748 92.714 63.7688 91.7292 63.7688 90.6023C63.7688 89.4659 63.9748 88.474 64.3867 87.6264C64.8034 86.7789 65.381 86.1207 66.1197 85.652C66.863 85.1832 67.7272 84.9489 68.712 84.9489C69.6969 84.9489 70.5586 85.1832 71.2972 85.652C72.0406 86.1207 72.6183 86.7789 73.0302 87.6264C73.4469 88.474 73.6552 89.4659 73.6552 90.6023C73.6552 91.7292 73.4469 92.714 73.0302 93.5568C72.6183 94.3996 72.0406 95.0554 71.2972 95.5241C70.5586 95.9929 69.6969 96.2273 68.712 96.2273ZM68.712 94.7216C69.4601 94.7216 70.0756 94.5298 70.5586 94.1463C71.0415 93.7628 71.399 93.2585 71.631 92.6335C71.863 92.0085 71.979 91.3314 71.979 90.6023C71.979 89.8731 71.863 89.1937 71.631 88.5639C71.399 87.9342 71.0415 87.4252 70.5586 87.0369C70.0756 86.6487 69.4601 86.4545 68.712 86.4545C67.9639 86.4545 67.3484 86.6487 66.8654 87.0369C66.3825 87.4252 66.025 87.9342 65.793 88.5639C65.561 89.1937 65.445 89.8731 65.445 90.6023C65.445 91.3314 65.561 92.0085 65.793 92.6335C66.025 93.2585 66.3825 93.7628 66.8654 94.1463C67.3484 94.5298 67.9639 94.7216 68.712 94.7216ZM80.6172 100.318C79.8075 100.318 79.1115 100.214 78.5291 100.006C77.9467 99.8021 77.4614 99.5322 77.0732 99.196C76.6896 98.8646 76.3842 98.5095 76.157 98.1307L77.4922 97.1932C77.6437 97.392 77.8355 97.6193 78.0675 97.875C78.2995 98.1354 78.6167 98.3603 79.0192 98.5497C79.4264 98.7438 79.959 98.8409 80.6172 98.8409C81.4979 98.8409 82.2247 98.6278 82.7976 98.2017C83.3705 97.7756 83.657 97.108 83.657 96.1989V93.983H83.5149C83.3918 94.1818 83.2166 94.428 82.9893 94.7216C82.7668 95.0104 82.4448 95.2685 82.0234 95.4957C81.6068 95.7183 81.0433 95.8295 80.3331 95.8295C79.4524 95.8295 78.6617 95.6212 77.9609 95.2045C77.2649 94.7879 76.7133 94.1818 76.3061 93.3864C75.9036 92.5909 75.7024 91.625 75.7024 90.4886C75.7024 89.3712 75.8989 88.3982 76.2919 87.5696C76.6849 86.7363 77.2318 86.0923 77.9325 85.6378C78.6333 85.1785 79.4429 84.9489 80.3615 84.9489C81.0717 84.9489 81.6352 85.0672 82.0518 85.304C82.4732 85.536 82.7952 85.8011 83.0178 86.0994C83.245 86.393 83.4202 86.6345 83.5433 86.8239H83.7138V85.0909H85.3331V96.3125C85.3331 97.25 85.12 98.0123 84.6939 98.5994C84.2725 99.1913 83.7043 99.6245 82.9893 99.8991C82.2791 100.179 81.4884 100.318 80.6172 100.318ZM80.5604 94.3239C81.2327 94.3239 81.8009 94.17 82.2649 93.8622C82.7289 93.5545 83.0817 93.1117 83.3232 92.5341C83.5646 91.9564 83.6854 91.2652 83.6854 90.4602C83.6854 89.6742 83.567 88.9806 83.3303 88.3793C83.0935 87.7779 82.7431 87.3068 82.2791 86.9659C81.8151 86.625 81.2422 86.4545 80.5604 86.4545C79.8501 86.4545 79.2583 86.6345 78.7848 86.9943C78.3161 87.3542 77.9633 87.8371 77.7266 88.4432C77.4946 89.0492 77.3786 89.7216 77.3786 90.4602C77.3786 91.2178 77.4969 91.8878 77.7337 92.4702C77.9751 93.0478 78.3303 93.5024 78.799 93.8338C79.2725 94.1605 79.8596 94.3239 80.5604 94.3239ZM92.8331 96.2273C91.8482 96.2273 90.9841 95.9929 90.2408 95.5241C89.5021 95.0554 88.9245 94.3996 88.5078 93.5568C88.0959 92.714 87.8899 91.7292 87.8899 90.6023C87.8899 89.4659 88.0959 88.474 88.5078 87.6264C88.9245 86.7789 89.5021 86.1207 90.2408 85.652C90.9841 85.1832 91.8482 84.9489 92.8331 84.9489C93.8179 84.9489 94.6797 85.1832 95.4183 85.652C96.1617 86.1207 96.7393 86.7789 97.1513 87.6264C97.5679 88.474 97.7763 89.4659 97.7763 90.6023C97.7763 91.7292 97.5679 92.714 97.1513 93.5568C96.7393 94.3996 96.1617 95.0554 95.4183 95.5241C94.6797 95.9929 93.8179 96.2273 92.8331 96.2273ZM92.8331 94.7216C93.5812 94.7216 94.1967 94.5298 94.6797 94.1463C95.1626 93.7628 95.5201 93.2585 95.7521 92.6335C95.9841 92.0085 96.1001 91.3314 96.1001 90.6023C96.1001 89.8731 95.9841 89.1937 95.7521 88.5639C95.5201 87.9342 95.1626 87.4252 94.6797 87.0369C94.1967 86.6487 93.5812 86.4545 92.8331 86.4545C92.085 86.4545 91.4695 86.6487 90.9865 87.0369C90.5036 87.4252 90.1461 87.9342 89.9141 88.5639C89.6821 89.1937 89.5661 89.8731 89.5661 90.6023C89.5661 91.3314 89.6821 92.0085 89.9141 92.6335C90.1461 93.2585 90.5036 93.7628 90.9865 94.1463C91.4695 94.5298 92.085 94.7216 92.8331 94.7216ZM108.062 87.5341L106.556 87.9602C106.462 87.7093 106.322 87.4654 106.137 87.2287C105.958 86.9872 105.711 86.7884 105.399 86.6321C105.086 86.4759 104.686 86.3977 104.199 86.3977C103.531 86.3977 102.975 86.5516 102.529 86.8594C102.089 87.1624 101.869 87.5483 101.869 88.017C101.869 88.4337 102.02 88.7628 102.324 89.0043C102.627 89.2457 103.1 89.447 103.744 89.608L105.363 90.0057C106.339 90.2424 107.065 90.6046 107.544 91.0923C108.022 91.5753 108.261 92.1979 108.261 92.9602C108.261 93.5852 108.081 94.1439 107.721 94.6364C107.366 95.1288 106.869 95.517 106.23 95.8011C105.591 96.0852 104.847 96.2273 104 96.2273C102.887 96.2273 101.966 95.9858 101.237 95.5028C100.508 95.0199 100.046 94.3144 99.8519 93.3864L101.443 92.9886C101.594 93.5758 101.881 94.0161 102.302 94.3097C102.728 94.6032 103.285 94.75 103.971 94.75C104.752 94.75 105.373 94.5843 105.832 94.2528C106.296 93.9167 106.528 93.5142 106.528 93.0455C106.528 92.6667 106.395 92.3494 106.13 92.0938C105.865 91.8333 105.458 91.6392 104.909 91.5114L103.091 91.0852C102.092 90.8485 101.358 90.4815 100.889 89.9844C100.425 89.4825 100.193 88.8551 100.193 88.1023C100.193 87.4867 100.366 86.9422 100.711 86.4688C101.062 85.9953 101.538 85.6236 102.139 85.3537C102.745 85.0838 103.431 84.9489 104.199 84.9489C105.278 84.9489 106.126 85.1856 106.741 85.6591C107.361 86.1326 107.802 86.7576 108.062 87.5341ZM115.358 96.2273C114.307 96.2273 113.4 95.9953 112.638 95.5312C111.88 95.0625 111.295 94.4091 110.884 93.571C110.476 92.7282 110.273 91.7481 110.273 90.6307C110.273 89.5133 110.476 88.5284 110.884 87.6761C111.295 86.8191 111.868 86.1515 112.602 85.6733C113.341 85.1903 114.203 84.9489 115.188 84.9489C115.756 84.9489 116.317 85.0436 116.871 85.233C117.425 85.4223 117.929 85.7301 118.384 86.1562C118.838 86.5777 119.2 87.1364 119.47 87.8324C119.74 88.5284 119.875 89.3854 119.875 90.4034V91.1136H111.466V89.6648H118.17C118.17 89.0492 118.047 88.5 117.801 88.017C117.56 87.5341 117.214 87.1529 116.764 86.8736C116.319 86.5942 115.794 86.4545 115.188 86.4545C114.52 86.4545 113.942 86.6203 113.455 86.9517C112.972 87.2784 112.6 87.7045 112.339 88.2301C112.079 88.7557 111.949 89.3191 111.949 89.9205V90.8864C111.949 91.7102 112.091 92.4086 112.375 92.9815C112.664 93.5497 113.064 93.983 113.575 94.2812C114.087 94.5748 114.681 94.7216 115.358 94.7216C115.798 94.7216 116.196 94.66 116.551 94.5369C116.911 94.4091 117.221 94.2197 117.482 93.9688C117.742 93.7131 117.943 93.3958 118.085 93.017L119.705 93.4716C119.534 94.0208 119.248 94.5038 118.845 94.9205C118.443 95.3324 117.946 95.6544 117.354 95.8864C116.762 96.1136 116.097 96.2273 115.358 96.2273ZM125.635 96.2557C124.944 96.2557 124.316 96.1255 123.753 95.8651C123.189 95.5999 122.742 95.2188 122.411 94.7216C122.079 94.2197 121.913 93.6136 121.913 92.9034C121.913 92.2784 122.036 91.7718 122.283 91.3835C122.529 90.9905 122.858 90.6828 123.27 90.4602C123.682 90.2377 124.136 90.072 124.634 89.9631C125.135 89.8494 125.64 89.7595 126.146 89.6932C126.809 89.608 127.347 89.544 127.759 89.5014C128.175 89.4541 128.478 89.3759 128.668 89.267C128.862 89.1581 128.959 88.9687 128.959 88.6989V88.642C128.959 87.9413 128.767 87.3968 128.384 87.0085C128.005 86.6203 127.429 86.4261 126.658 86.4261C125.857 86.4261 125.23 86.6013 124.776 86.9517C124.321 87.3021 124.001 87.6761 123.817 88.0739L122.226 87.5057C122.51 86.8428 122.889 86.3267 123.362 85.9574C123.84 85.5833 124.361 85.3229 124.925 85.1761C125.493 85.0246 126.052 84.9489 126.601 84.9489C126.951 84.9489 127.354 84.9915 127.808 85.0767C128.268 85.1572 128.71 85.3253 129.136 85.581C129.567 85.8366 129.925 86.2225 130.209 86.7386C130.493 87.2547 130.635 87.946 130.635 88.8125V96H128.959V94.5227H128.874C128.76 94.7595 128.571 95.0128 128.305 95.2827C128.04 95.5526 127.688 95.7822 127.247 95.9716C126.807 96.161 126.269 96.2557 125.635 96.2557ZM125.891 94.75C126.554 94.75 127.112 94.6198 127.567 94.3594C128.026 94.099 128.372 93.7628 128.604 93.3509C128.84 92.9389 128.959 92.5057 128.959 92.0511V90.517C128.888 90.6023 128.732 90.6804 128.49 90.7514C128.253 90.8177 127.979 90.8769 127.666 90.929C127.358 90.9763 127.058 91.0189 126.764 91.0568C126.475 91.09 126.241 91.1184 126.061 91.142C125.625 91.1989 125.218 91.2912 124.839 91.419C124.465 91.5421 124.162 91.7292 123.93 91.9801C123.703 92.2263 123.589 92.5625 123.589 92.9886C123.589 93.571 123.805 94.0114 124.236 94.3097C124.671 94.6032 125.223 94.75 125.891 94.75ZM133.694 96V85.0909H135.314V86.7386H135.427C135.626 86.1989 135.986 85.7609 136.507 85.4247C137.028 85.0885 137.615 84.9205 138.268 84.9205C138.391 84.9205 138.545 84.9228 138.73 84.9276C138.914 84.9323 139.054 84.9394 139.149 84.9489V86.6534C139.092 86.6392 138.962 86.6179 138.758 86.5895C138.559 86.5563 138.349 86.5398 138.126 86.5398C137.596 86.5398 137.122 86.651 136.706 86.8736C136.294 87.0914 135.967 87.3944 135.725 87.7827C135.489 88.1662 135.37 88.6042 135.37 89.0966V96H133.694ZM145.235 96.2273C144.213 96.2273 143.332 95.9858 142.593 95.5028C141.855 95.0199 141.287 94.3546 140.889 93.5071C140.491 92.6596 140.292 91.6913 140.292 90.6023C140.292 89.4943 140.496 88.5166 140.903 87.669C141.315 86.8168 141.888 86.1515 142.622 85.6733C143.36 85.1903 144.222 84.9489 145.207 84.9489C145.974 84.9489 146.665 85.0909 147.281 85.375C147.896 85.6591 148.401 86.0568 148.794 86.5682C149.187 87.0795 149.431 87.6761 149.525 88.358H147.849C147.721 87.8608 147.437 87.4205 146.997 87.0369C146.561 86.6487 145.974 86.4545 145.235 86.4545C144.582 86.4545 144.009 86.625 143.517 86.9659C143.029 87.3021 142.648 87.7779 142.373 88.3935C142.103 89.0043 141.968 89.7216 141.968 90.5455C141.968 91.3883 142.101 92.1222 142.366 92.7472C142.636 93.3722 143.015 93.8575 143.502 94.2031C143.995 94.5488 144.573 94.7216 145.235 94.7216C145.671 94.7216 146.066 94.6458 146.422 94.4943C146.777 94.3428 147.077 94.125 147.324 93.8409C147.57 93.5568 147.745 93.2159 147.849 92.8182H149.525C149.431 93.4621 149.196 94.0421 148.822 94.5582C148.453 95.0696 147.963 95.4768 147.352 95.7798C146.746 96.0781 146.04 96.2273 145.235 96.2273ZM153.652 89.4375V96H151.975V81.4545H153.652V86.7955H153.794C154.049 86.232 154.433 85.7846 154.944 85.4531C155.46 85.117 156.147 84.9489 157.004 84.9489C157.747 84.9489 158.398 85.098 158.957 85.3963C159.516 85.6899 159.949 86.142 160.257 86.7528C160.569 87.3589 160.725 88.1307 160.725 89.0682V96H159.049V89.1818C159.049 88.3153 158.824 87.6454 158.375 87.1719C157.93 86.6937 157.312 86.4545 156.521 86.4545C155.972 86.4545 155.479 86.5705 155.044 86.8026C154.613 87.0346 154.272 87.3731 154.021 87.8182C153.775 88.2633 153.652 88.803 153.652 89.4375Z" fill="white"/>
<path d="M70.2102 130.438V137H68.5341V126.091H70.1534V127.795H70.2955C70.5511 127.241 70.9394 126.796 71.4602 126.46C71.9811 126.119 72.6534 125.949 73.4773 125.949C74.2159 125.949 74.8622 126.1 75.4162 126.403C75.9702 126.702 76.401 127.156 76.7088 127.767C77.0166 128.373 77.1705 129.14 77.1705 130.068V137H75.4943V130.182C75.4943 129.325 75.2718 128.657 74.8267 128.179C74.3816 127.696 73.7708 127.455 72.9943 127.455C72.4593 127.455 71.9811 127.571 71.5597 127.803C71.143 128.035 70.8139 128.373 70.5724 128.818C70.331 129.263 70.2102 129.803 70.2102 130.438ZM83.4435 137.256C82.7522 137.256 82.1249 137.125 81.5614 136.865C80.998 136.6 80.5505 136.219 80.2191 135.722C79.8877 135.22 79.7219 134.614 79.7219 133.903C79.7219 133.278 79.8451 132.772 80.0913 132.384C80.3375 131.991 80.6665 131.683 81.0785 131.46C81.4904 131.238 81.945 131.072 82.4421 130.963C82.944 130.849 83.4483 130.759 83.9549 130.693C84.6178 130.608 85.1552 130.544 85.5671 130.501C85.9838 130.454 86.2868 130.376 86.4762 130.267C86.6703 130.158 86.7674 129.969 86.7674 129.699V129.642C86.7674 128.941 86.5756 128.397 86.1921 128.009C85.8133 127.62 85.238 127.426 84.4663 127.426C83.6661 127.426 83.0387 127.601 82.5842 127.952C82.1296 128.302 81.81 128.676 81.6254 129.074L80.0344 128.506C80.3185 127.843 80.6973 127.327 81.1708 126.957C81.649 126.583 82.1699 126.323 82.7333 126.176C83.3015 126.025 83.8602 125.949 84.4094 125.949C84.7598 125.949 85.1623 125.991 85.6168 126.077C86.0761 126.157 86.5188 126.325 86.945 126.581C87.3758 126.837 87.7333 127.223 88.0174 127.739C88.3015 128.255 88.4435 128.946 88.4435 129.812V137H86.7674V135.523H86.6822C86.5685 135.759 86.3791 136.013 86.114 136.283C85.8488 136.553 85.4961 136.782 85.0558 136.972C84.6154 137.161 84.078 137.256 83.4435 137.256ZM83.6992 135.75C84.3621 135.75 84.9208 135.62 85.3754 135.359C85.8346 135.099 86.1803 134.763 86.4123 134.351C86.649 133.939 86.7674 133.506 86.7674 133.051V131.517C86.6964 131.602 86.5401 131.68 86.2987 131.751C86.0619 131.818 85.7873 131.877 85.4748 131.929C85.167 131.976 84.8664 132.019 84.5728 132.057C84.284 132.09 84.0496 132.118 83.8697 132.142C83.4341 132.199 83.0269 132.291 82.6481 132.419C82.274 132.542 81.971 132.729 81.739 132.98C81.5117 133.226 81.3981 133.562 81.3981 133.989C81.3981 134.571 81.6135 135.011 82.0444 135.31C82.48 135.603 83.0316 135.75 83.6992 135.75ZM100.033 126.091L95.9986 137H94.294L90.2599 126.091H92.0781L95.0895 134.784H95.2031L98.2145 126.091H100.033Z" fill="white"/>
<path d="M1049.26 66.5341L1047.76 66.9602C1047.66 66.7093 1047.52 66.4654 1047.34 66.2287C1047.16 65.9872 1046.91 65.7884 1046.6 65.6321C1046.29 65.4759 1045.89 65.3977 1045.4 65.3977C1044.73 65.3977 1044.17 65.5516 1043.73 65.8594C1043.29 66.1624 1043.07 66.5483 1043.07 67.017C1043.07 67.4337 1043.22 67.7628 1043.52 68.0043C1043.83 68.2457 1044.3 68.447 1044.94 68.608L1046.56 69.0057C1047.54 69.2424 1048.26 69.6046 1048.74 70.0923C1049.22 70.5753 1049.46 71.1979 1049.46 71.9602C1049.46 72.5852 1049.28 73.1439 1048.92 73.6364C1048.57 74.1288 1048.07 74.517 1047.43 74.8011C1046.79 75.0852 1046.05 75.2273 1045.2 75.2273C1044.09 75.2273 1043.17 74.9858 1042.44 74.5028C1041.71 74.0199 1041.25 73.3144 1041.05 72.3864L1042.64 71.9886C1042.79 72.5758 1043.08 73.0161 1043.5 73.3097C1043.93 73.6032 1044.48 73.75 1045.17 73.75C1045.95 73.75 1046.57 73.5843 1047.03 73.2528C1047.5 72.9167 1047.73 72.5142 1047.73 72.0455C1047.73 71.6667 1047.59 71.3494 1047.33 71.0938C1047.06 70.8333 1046.66 70.6392 1046.11 70.5114L1044.29 70.0852C1043.29 69.8485 1042.56 69.4815 1042.09 68.9844C1041.62 68.4825 1041.39 67.8551 1041.39 67.1023C1041.39 66.4867 1041.56 65.9422 1041.91 65.4688C1042.26 64.9953 1042.74 64.6236 1043.34 64.3537C1043.94 64.0838 1044.63 63.9489 1045.4 63.9489C1046.48 63.9489 1047.32 64.1856 1047.94 64.6591C1048.56 65.1326 1049 65.7576 1049.26 66.5341ZM1051.98 75V64.0909H1053.66V75H1051.98ZM1052.84 62.2727C1052.51 62.2727 1052.23 62.1615 1051.99 61.9389C1051.76 61.7164 1051.64 61.4489 1051.64 61.1364C1051.64 60.8239 1051.76 60.5563 1051.99 60.3338C1052.23 60.1113 1052.51 60 1052.84 60C1053.16 60 1053.44 60.1113 1053.67 60.3338C1053.91 60.5563 1054.03 60.8239 1054.03 61.1364C1054.03 61.4489 1053.91 61.7164 1053.67 61.9389C1053.44 62.1615 1053.16 62.2727 1052.84 62.2727ZM1061.13 79.3182C1060.32 79.3182 1059.63 79.214 1059.04 79.0057C1058.46 78.8021 1057.98 78.5322 1057.59 78.196C1057.21 77.8646 1056.9 77.5095 1056.67 77.1307L1058.01 76.1932C1058.16 76.392 1058.35 76.6193 1058.58 76.875C1058.82 77.1354 1059.13 77.3603 1059.53 77.5497C1059.94 77.7438 1060.47 77.8409 1061.13 77.8409C1062.01 77.8409 1062.74 77.6278 1063.31 77.2017C1063.89 76.7756 1064.17 76.108 1064.17 75.1989V72.983H1064.03C1063.91 73.1818 1063.73 73.428 1063.5 73.7216C1063.28 74.0104 1062.96 74.2685 1062.54 74.4957C1062.12 74.7183 1061.56 74.8295 1060.85 74.8295C1059.97 74.8295 1059.18 74.6212 1058.48 74.2045C1057.78 73.7879 1057.23 73.1818 1056.82 72.3864C1056.42 71.5909 1056.22 70.625 1056.22 69.4886C1056.22 68.3712 1056.41 67.3982 1056.81 66.5696C1057.2 65.7363 1057.75 65.0923 1058.45 64.6378C1059.15 64.1785 1059.96 63.9489 1060.88 63.9489C1061.59 63.9489 1062.15 64.0672 1062.57 64.304C1062.99 64.536 1063.31 64.8011 1063.53 65.0994C1063.76 65.393 1063.94 65.6345 1064.06 65.8239H1064.23V64.0909H1065.85V75.3125C1065.85 76.25 1065.64 77.0123 1065.21 77.5994C1064.79 78.1913 1064.22 78.6245 1063.5 78.8991C1062.79 79.1785 1062 79.3182 1061.13 79.3182ZM1061.08 73.3239C1061.75 73.3239 1062.32 73.17 1062.78 72.8622C1063.24 72.5545 1063.6 72.1117 1063.84 71.5341C1064.08 70.9564 1064.2 70.2652 1064.2 69.4602C1064.2 68.6742 1064.08 67.9806 1063.85 67.3793C1063.61 66.7779 1063.26 66.3068 1062.79 65.9659C1062.33 65.625 1061.76 65.4545 1061.08 65.4545C1060.37 65.4545 1059.77 65.6345 1059.3 65.9943C1058.83 66.3542 1058.48 66.8371 1058.24 67.4432C1058.01 68.0492 1057.89 68.7216 1057.89 69.4602C1057.89 70.2178 1058.01 70.8878 1058.25 71.4702C1058.49 72.0478 1058.85 72.5024 1059.31 72.8338C1059.79 73.1605 1060.38 73.3239 1061.08 73.3239ZM1070.59 68.4375V75H1068.92V64.0909H1070.54V65.7955H1070.68C1070.93 65.2415 1071.32 64.7964 1071.84 64.4602C1072.36 64.1193 1073.04 63.9489 1073.86 63.9489C1074.6 63.9489 1075.25 64.1004 1075.8 64.4034C1076.35 64.7017 1076.78 65.1562 1077.09 65.767C1077.4 66.3731 1077.55 67.1402 1077.55 68.0682V75H1075.88V68.1818C1075.88 67.3248 1075.65 66.6572 1075.21 66.179C1074.76 65.696 1074.15 65.4545 1073.38 65.4545C1072.84 65.4545 1072.36 65.5705 1071.94 65.8026C1071.53 66.0346 1071.2 66.3731 1070.96 66.8182C1070.71 67.2633 1070.59 67.803 1070.59 68.4375Z" fill="white"/>
<path d="M51.2614 166.534L49.7557 166.96C49.661 166.709 49.5213 166.465 49.3366 166.229C49.1567 165.987 48.9105 165.788 48.598 165.632C48.2855 165.476 47.8854 165.398 47.3977 165.398C46.7301 165.398 46.1738 165.552 45.7287 165.859C45.2884 166.162 45.0682 166.548 45.0682 167.017C45.0682 167.434 45.2197 167.763 45.5227 168.004C45.8258 168.246 46.2992 168.447 46.9432 168.608L48.5625 169.006C49.5379 169.242 50.2647 169.605 50.7429 170.092C51.2211 170.575 51.4602 171.198 51.4602 171.96C51.4602 172.585 51.2803 173.144 50.9205 173.636C50.5653 174.129 50.0682 174.517 49.429 174.801C48.7898 175.085 48.0464 175.227 47.1989 175.227C46.0862 175.227 45.1652 174.986 44.4361 174.503C43.7069 174.02 43.2453 173.314 43.0511 172.386L44.642 171.989C44.7936 172.576 45.08 173.016 45.5014 173.31C45.9276 173.603 46.4839 173.75 47.1705 173.75C47.9517 173.75 48.572 173.584 49.0312 173.253C49.4953 172.917 49.7273 172.514 49.7273 172.045C49.7273 171.667 49.5947 171.349 49.3295 171.094C49.0644 170.833 48.6572 170.639 48.108 170.511L46.2898 170.085C45.2907 169.848 44.5568 169.482 44.0881 168.984C43.6241 168.482 43.392 167.855 43.392 167.102C43.392 166.487 43.5649 165.942 43.9105 165.469C44.2609 164.995 44.7367 164.624 45.3381 164.354C45.9441 164.084 46.6307 163.949 47.3977 163.949C48.4773 163.949 49.3248 164.186 49.9403 164.659C50.5606 165.133 51.0009 165.758 51.2614 166.534ZM58.5572 175.227C57.506 175.227 56.5993 174.995 55.837 174.531C55.0794 174.062 54.4947 173.409 54.0827 172.571C53.6755 171.728 53.4719 170.748 53.4719 169.631C53.4719 168.513 53.6755 167.528 54.0827 166.676C54.4947 165.819 55.0676 165.152 55.8015 164.673C56.5401 164.19 57.4019 163.949 58.3867 163.949C58.9549 163.949 59.516 164.044 60.07 164.233C60.6239 164.422 61.1282 164.73 61.5827 165.156C62.0373 165.578 62.3995 166.136 62.6694 166.832C62.9393 167.528 63.0742 168.385 63.0742 169.403V170.114H54.6651V168.665H61.3697C61.3697 168.049 61.2466 167.5 61.0004 167.017C60.7589 166.534 60.4132 166.153 59.9634 165.874C59.5183 165.594 58.9928 165.455 58.3867 165.455C57.7191 165.455 57.1415 165.62 56.6538 165.952C56.1708 166.278 55.7991 166.705 55.5387 167.23C55.2783 167.756 55.1481 168.319 55.1481 168.92V169.886C55.1481 170.71 55.2901 171.409 55.5742 171.982C55.863 172.55 56.2631 172.983 56.7745 173.281C57.2859 173.575 57.8801 173.722 58.5572 173.722C58.9975 173.722 59.3952 173.66 59.7504 173.537C60.1102 173.409 60.4203 173.22 60.6808 172.969C60.9412 172.713 61.1424 172.396 61.2844 172.017L62.9038 172.472C62.7333 173.021 62.4469 173.504 62.0444 173.92C61.6419 174.332 61.1448 174.654 60.5529 174.886C59.9611 175.114 59.2958 175.227 58.5572 175.227ZM70.0558 175.227C69.033 175.227 68.1523 174.986 67.4137 174.503C66.6751 174.02 66.1069 173.355 65.7092 172.507C65.3114 171.66 65.1126 170.691 65.1126 169.602C65.1126 168.494 65.3162 167.517 65.7234 166.669C66.1353 165.817 66.7082 165.152 67.4421 164.673C68.1808 164.19 69.0425 163.949 70.0273 163.949C70.7944 163.949 71.4857 164.091 72.1012 164.375C72.7167 164.659 73.221 165.057 73.614 165.568C74.007 166.08 74.2508 166.676 74.3455 167.358H72.6694C72.5415 166.861 72.2575 166.42 71.8171 166.037C71.3815 165.649 70.7944 165.455 70.0558 165.455C69.4023 165.455 68.8294 165.625 68.337 165.966C67.8493 166.302 67.4682 166.778 67.1935 167.393C66.9237 168.004 66.7887 168.722 66.7887 169.545C66.7887 170.388 66.9213 171.122 67.1864 171.747C67.4563 172.372 67.8351 172.857 68.3228 173.203C68.8152 173.549 69.3929 173.722 70.0558 173.722C70.4914 173.722 70.8867 173.646 71.2418 173.494C71.5969 173.343 71.8976 173.125 72.1438 172.841C72.39 172.557 72.5652 172.216 72.6694 171.818H74.3455C74.2508 172.462 74.0165 173.042 73.6424 173.558C73.2731 174.07 72.783 174.477 72.1722 174.78C71.5662 175.078 70.8607 175.227 70.0558 175.227ZM81.5401 164.091V165.511H75.8867V164.091H81.5401ZM77.5344 161.477H79.2106V171.875C79.2106 172.348 79.2792 172.704 79.4165 172.94C79.5586 173.172 79.7385 173.329 79.9563 173.409C80.1789 173.485 80.4132 173.523 80.6594 173.523C80.8441 173.523 80.9956 173.513 81.114 173.494C81.2324 173.471 81.3271 173.452 81.3981 173.438L81.739 174.943C81.6254 174.986 81.4667 175.028 81.2631 175.071C81.0595 175.118 80.8015 175.142 80.489 175.142C80.0155 175.142 79.5515 175.04 79.0969 174.837C78.6471 174.633 78.2731 174.323 77.9748 173.906C77.6812 173.49 77.5344 172.964 77.5344 172.33V161.477ZM84.0614 175V164.091H85.7376V175H84.0614ZM84.9137 162.273C84.587 162.273 84.3053 162.161 84.0685 161.939C83.8365 161.716 83.7205 161.449 83.7205 161.136C83.7205 160.824 83.8365 160.556 84.0685 160.334C84.3053 160.111 84.587 160 84.9137 160C85.2404 160 85.5198 160.111 85.7518 160.334C85.9885 160.556 86.1069 160.824 86.1069 161.136C86.1069 161.449 85.9885 161.716 85.7518 161.939C85.5198 162.161 85.2404 162.273 84.9137 162.273ZM93.2393 175.227C92.2545 175.227 91.3904 174.993 90.647 174.524C89.9084 174.055 89.3307 173.4 88.9141 172.557C88.5021 171.714 88.2962 170.729 88.2962 169.602C88.2962 168.466 88.5021 167.474 88.9141 166.626C89.3307 165.779 89.9084 165.121 90.647 164.652C91.3904 164.183 92.2545 163.949 93.2393 163.949C94.2242 163.949 95.0859 164.183 95.8246 164.652C96.5679 165.121 97.1456 165.779 97.5575 166.626C97.9742 167.474 98.1825 168.466 98.1825 169.602C98.1825 170.729 97.9742 171.714 97.5575 172.557C97.1456 173.4 96.5679 174.055 95.8246 174.524C95.0859 174.993 94.2242 175.227 93.2393 175.227ZM93.2393 173.722C93.9875 173.722 94.603 173.53 95.0859 173.146C95.5689 172.763 95.9264 172.259 96.1584 171.634C96.3904 171.009 96.5064 170.331 96.5064 169.602C96.5064 168.873 96.3904 168.194 96.1584 167.564C95.9264 166.934 95.5689 166.425 95.0859 166.037C94.603 165.649 93.9875 165.455 93.2393 165.455C92.4912 165.455 91.8757 165.649 91.3928 166.037C90.9098 166.425 90.5523 166.934 90.3203 167.564C90.0883 168.194 89.9723 168.873 89.9723 169.602C89.9723 170.331 90.0883 171.009 90.3203 171.634C90.5523 172.259 90.9098 172.763 91.3928 173.146C91.8757 173.53 92.4912 173.722 93.2393 173.722ZM102.417 168.438V175H100.741V164.091H102.36V165.795H102.502C102.758 165.241 103.146 164.796 103.667 164.46C104.188 164.119 104.86 163.949 105.684 163.949C106.423 163.949 107.069 164.1 107.623 164.403C108.177 164.702 108.608 165.156 108.916 165.767C109.224 166.373 109.377 167.14 109.377 168.068V175H107.701V168.182C107.701 167.325 107.479 166.657 107.034 166.179C106.589 165.696 105.978 165.455 105.201 165.455C104.666 165.455 104.188 165.571 103.767 165.803C103.35 166.035 103.021 166.373 102.779 166.818C102.538 167.263 102.417 167.803 102.417 168.438Z" fill="white"/>
<path d="M231.966 175.227C230.943 175.227 230.063 174.986 229.324 174.503C228.585 174.02 228.017 173.355 227.619 172.507C227.222 171.66 227.023 170.691 227.023 169.602C227.023 168.494 227.226 167.517 227.634 166.669C228.045 165.817 228.618 165.152 229.352 164.673C230.091 164.19 230.953 163.949 231.938 163.949C232.705 163.949 233.396 164.091 234.011 164.375C234.627 164.659 235.131 165.057 235.524 165.568C235.917 166.08 236.161 166.676 236.256 167.358H234.58C234.452 166.861 234.168 166.42 233.727 166.037C233.292 165.649 232.705 165.455 231.966 165.455C231.313 165.455 230.74 165.625 230.247 165.966C229.759 166.302 229.378 166.778 229.104 167.393C228.834 168.004 228.699 168.722 228.699 169.545C228.699 170.388 228.831 171.122 229.097 171.747C229.366 172.372 229.745 172.857 230.233 173.203C230.725 173.549 231.303 173.722 231.966 173.722C232.402 173.722 232.797 173.646 233.152 173.494C233.507 173.343 233.808 173.125 234.054 172.841C234.3 172.557 234.475 172.216 234.58 171.818H236.256C236.161 172.462 235.927 173.042 235.553 173.558C235.183 174.07 234.693 174.477 234.082 174.78C233.476 175.078 232.771 175.227 231.966 175.227ZM243.138 175.227C242.153 175.227 241.289 174.993 240.545 174.524C239.807 174.055 239.229 173.4 238.812 172.557C238.401 171.714 238.195 170.729 238.195 169.602C238.195 168.466 238.401 167.474 238.812 166.626C239.229 165.779 239.807 165.121 240.545 164.652C241.289 164.183 242.153 163.949 243.138 163.949C244.123 163.949 244.984 164.183 245.723 164.652C246.466 165.121 247.044 165.779 247.456 166.626C247.873 167.474 248.081 168.466 248.081 169.602C248.081 170.729 247.873 171.714 247.456 172.557C247.044 173.4 246.466 174.055 245.723 174.524C244.984 174.993 244.123 175.227 243.138 175.227ZM243.138 173.722C243.886 173.722 244.501 173.53 244.984 173.146C245.467 172.763 245.825 172.259 246.057 171.634C246.289 171.009 246.405 170.331 246.405 169.602C246.405 168.873 246.289 168.194 246.057 167.564C245.825 166.934 245.467 166.425 244.984 166.037C244.501 165.649 243.886 165.455 243.138 165.455C242.39 165.455 241.774 165.649 241.291 166.037C240.808 166.425 240.451 166.934 240.219 167.564C239.987 168.194 239.871 168.873 239.871 169.602C239.871 170.331 239.987 171.009 240.219 171.634C240.451 172.259 240.808 172.763 241.291 173.146C241.774 173.53 242.39 173.722 243.138 173.722ZM252.316 168.438V175H250.64V164.091H252.259V165.795H252.401C252.657 165.241 253.045 164.796 253.566 164.46C254.087 164.119 254.759 163.949 255.583 163.949C256.321 163.949 256.968 164.1 257.522 164.403C258.076 164.702 258.507 165.156 258.814 165.767C259.122 166.373 259.276 167.14 259.276 168.068V175H257.6V168.182C257.6 167.325 257.377 166.657 256.932 166.179C256.487 165.696 255.876 165.455 255.1 165.455C254.565 165.455 254.087 165.571 253.665 165.803C253.248 166.035 252.919 166.373 252.678 166.818C252.436 167.263 252.316 167.803 252.316 168.438ZM267.083 164.091V165.511H261.43V164.091H267.083ZM263.077 161.477H264.754V171.875C264.754 172.348 264.822 172.704 264.96 172.94C265.102 173.172 265.281 173.329 265.499 173.409C265.722 173.485 265.956 173.523 266.202 173.523C266.387 173.523 266.539 173.513 266.657 173.494C266.775 173.471 266.87 173.452 266.941 173.438L267.282 174.943C267.168 174.986 267.01 175.028 266.806 175.071C266.603 175.118 266.344 175.142 266.032 175.142C265.558 175.142 265.094 175.04 264.64 174.837C264.19 174.633 263.816 174.323 263.518 173.906C263.224 173.49 263.077 172.964 263.077 172.33V161.477ZM272.815 175.256C272.123 175.256 271.496 175.125 270.933 174.865C270.369 174.6 269.922 174.219 269.59 173.722C269.259 173.22 269.093 172.614 269.093 171.903C269.093 171.278 269.216 170.772 269.462 170.384C269.709 169.991 270.038 169.683 270.45 169.46C270.862 169.238 271.316 169.072 271.813 168.963C272.315 168.849 272.819 168.759 273.326 168.693C273.989 168.608 274.526 168.544 274.938 168.501C275.355 168.454 275.658 168.376 275.847 168.267C276.041 168.158 276.138 167.969 276.138 167.699V167.642C276.138 166.941 275.947 166.397 275.563 166.009C275.184 165.62 274.609 165.426 273.837 165.426C273.037 165.426 272.41 165.601 271.955 165.952C271.501 166.302 271.181 166.676 270.996 167.074L269.406 166.506C269.69 165.843 270.068 165.327 270.542 164.957C271.02 164.583 271.541 164.323 272.104 164.176C272.673 164.025 273.231 163.949 273.781 163.949C274.131 163.949 274.533 163.991 274.988 164.077C275.447 164.157 275.89 164.325 276.316 164.581C276.747 164.837 277.104 165.223 277.388 165.739C277.673 166.255 277.815 166.946 277.815 167.812V175H276.138V173.523H276.053C275.94 173.759 275.75 174.013 275.485 174.283C275.22 174.553 274.867 174.782 274.427 174.972C273.987 175.161 273.449 175.256 272.815 175.256ZM273.07 173.75C273.733 173.75 274.292 173.62 274.746 173.359C275.206 173.099 275.551 172.763 275.783 172.351C276.02 171.939 276.138 171.506 276.138 171.051V169.517C276.067 169.602 275.911 169.68 275.67 169.751C275.433 169.818 275.158 169.877 274.846 169.929C274.538 169.976 274.237 170.019 273.944 170.057C273.655 170.09 273.421 170.118 273.241 170.142C272.805 170.199 272.398 170.291 272.019 170.419C271.645 170.542 271.342 170.729 271.11 170.98C270.883 171.226 270.769 171.562 270.769 171.989C270.769 172.571 270.985 173.011 271.415 173.31C271.851 173.603 272.403 173.75 273.07 173.75ZM280.874 175V164.091H282.55V175H280.874ZM281.726 162.273C281.4 162.273 281.118 162.161 280.881 161.939C280.649 161.716 280.533 161.449 280.533 161.136C280.533 160.824 280.649 160.556 280.881 160.334C281.118 160.111 281.4 160 281.726 160C282.053 160 282.332 160.111 282.564 160.334C282.801 160.556 282.919 160.824 282.919 161.136C282.919 161.449 282.801 161.716 282.564 161.939C282.332 162.161 282.053 162.273 281.726 162.273ZM287.296 168.438V175H285.62V164.091H287.239V165.795H287.381C287.637 165.241 288.025 164.796 288.546 164.46C289.067 164.119 289.739 163.949 290.563 163.949C291.302 163.949 291.948 164.1 292.502 164.403C293.056 164.702 293.487 165.156 293.795 165.767C294.103 166.373 294.256 167.14 294.256 168.068V175H292.58V168.182C292.58 167.325 292.358 166.657 291.913 166.179C291.468 165.696 290.857 165.455 290.08 165.455C289.545 165.455 289.067 165.571 288.646 165.803C288.229 166.035 287.9 166.373 287.658 166.818C287.417 167.263 287.296 167.803 287.296 168.438ZM301.893 175.227C300.842 175.227 299.935 174.995 299.173 174.531C298.415 174.062 297.831 173.409 297.419 172.571C297.011 171.728 296.808 170.748 296.808 169.631C296.808 168.513 297.011 167.528 297.419 166.676C297.831 165.819 298.404 165.152 299.137 164.673C299.876 164.19 300.738 163.949 301.723 163.949C302.291 163.949 302.852 164.044 303.406 164.233C303.96 164.422 304.464 164.73 304.919 165.156C305.373 165.578 305.735 166.136 306.005 166.832C306.275 167.528 306.41 168.385 306.41 169.403V170.114H298.001V168.665H304.706C304.706 168.049 304.583 167.5 304.336 167.017C304.095 166.534 303.749 166.153 303.299 165.874C302.854 165.594 302.329 165.455 301.723 165.455C301.055 165.455 300.477 165.62 299.99 165.952C299.507 166.278 299.135 166.705 298.875 167.23C298.614 167.756 298.484 168.319 298.484 168.92V169.886C298.484 170.71 298.626 171.409 298.91 171.982C299.199 172.55 299.599 172.983 300.11 173.281C300.622 173.575 301.216 173.722 301.893 173.722C302.333 173.722 302.731 173.66 303.086 173.537C303.446 173.409 303.756 173.22 304.017 172.969C304.277 172.713 304.478 172.396 304.62 172.017L306.24 172.472C306.069 173.021 305.783 173.504 305.38 173.92C304.978 174.332 304.481 174.654 303.889 174.886C303.297 175.114 302.632 175.227 301.893 175.227ZM308.96 175V164.091H310.579V165.739H310.693C310.892 165.199 311.252 164.761 311.772 164.425C312.293 164.089 312.88 163.92 313.534 163.92C313.657 163.92 313.811 163.923 313.995 163.928C314.18 163.932 314.32 163.939 314.414 163.949V165.653C314.358 165.639 314.227 165.618 314.024 165.589C313.825 165.556 313.614 165.54 313.392 165.54C312.861 165.54 312.388 165.651 311.971 165.874C311.559 166.091 311.233 166.394 310.991 166.783C310.754 167.166 310.636 167.604 310.636 168.097V175H308.96ZM316.373 175V173.722L321.174 168.466C321.737 167.85 322.201 167.315 322.566 166.861C322.931 166.402 323.201 165.971 323.376 165.568C323.556 165.161 323.646 164.735 323.646 164.29C323.646 163.778 323.522 163.336 323.276 162.962C323.035 162.588 322.703 162.299 322.282 162.095C321.861 161.892 321.387 161.79 320.862 161.79C320.303 161.79 319.815 161.906 319.398 162.138C318.987 162.365 318.667 162.685 318.44 163.097C318.217 163.509 318.106 163.991 318.106 164.545H316.43C316.43 163.693 316.626 162.945 317.019 162.301C317.412 161.657 317.947 161.155 318.624 160.795C319.306 160.436 320.071 160.256 320.918 160.256C321.771 160.256 322.526 160.436 323.184 160.795C323.842 161.155 324.358 161.641 324.732 162.251C325.106 162.862 325.293 163.542 325.293 164.29C325.293 164.825 325.196 165.348 325.002 165.859C324.813 166.366 324.481 166.932 324.008 167.557C323.539 168.177 322.888 168.935 322.055 169.83L318.788 173.324V173.438H325.549V175H316.373Z" fill="white"/>
</svg>
